<svg t="1668417896503" class="icon" viewBox="0 0 1024 1024" version="1.1" xmlns="http://www.w3.org/2000/svg" p-id="2140" width="200" height="200"><path d="M512 63.015385C263.876923 63.015385 63.015385 263.876923 63.015385 512S263.876923 960.984615 512 960.984615c248.123077 0 448.984615-200.861538 448.984615-448.984615S760.123077 63.015385 512 63.015385z m0 838.892307c-212.676923 0-389.907692-173.292308-389.907692-389.907692S299.323077 122.092308 512 122.092308s389.907692 173.292308 389.907692 389.907692-177.230769 389.907692-389.907692 389.907692z" fill="#666666" p-id="2141"></path><path d="M484.430769 334.769231c-7.876923-3.938462-15.753846-7.876923-23.630769-7.876923-19.692308 0-35.446154 15.753846-35.446154 35.446154v299.323076c0 7.876923 3.938462 15.753846 7.876923 23.63077 11.815385 15.753846 35.446154 19.692308 51.2 7.876923l196.923077-149.661539c7.876923-7.876923 15.753846-19.692308 15.753846-31.507692 0-11.815385-3.938462-23.630769-15.753846-31.507692l-196.923077-145.723077z m-3.938461 287.507692v-224.492308L630.153846 512l-149.661538 110.276923zM697.107692 512z" fill="#666666" p-id="2142"></path></svg>