<svg t="1668586970048" class="icon" viewBox="0 0 1024 1024" version="1.1" xmlns="http://www.w3.org/2000/svg" p-id="2175" width="200" height="200"><path d="M392.021333 416.597333h240.128c18.773333 0 34.133333-15.36 34.133334-34.133333s-15.36-34.133333-34.133334-34.133333H392.021333a34.133333 34.133333 0 1 0 0 68.266666zM392.021333 593.237333h240.128c18.773333 0 34.133333-15.36 34.133334-34.133333s-15.36-34.133333-34.133334-34.133333H392.021333a34.133333 34.133333 0 1 0 0 68.266666z" fill="#ffffff" p-id="2176"></path><path d="M901.802667 629.248c-16.725333-8.704-37.376-2.218667-46.08 14.506667a376.029867 376.029867 0 0 1-334.336 202.922666c-207.701333 0-376.661333-168.96-376.661334-376.661333 0-14.165333-8.874667-26.965333-22.016-31.914667-13.141333-4.949333-28.330667-1.365333-37.717333 9.386667L9.386667 533.504c-12.458667 14.165333-11.093333 35.669333 3.072 48.128 14.165333 12.458667 35.669333 11.093333 48.128-3.072l23.552-26.624c38.570667 206.336 219.989333 363.178667 437.418666 363.178667 166.570667 0 317.781333-91.818667 394.752-239.616 8.704-16.896 2.218667-37.546667-14.506666-46.250667zM1011.541333 369.493333c-14.165333-12.458667-35.669333-11.093333-48.128 3.072l-23.552 26.624C901.461333 192.682667 719.872 36.010667 502.613333 36.010667c-166.570667 0-317.781333 91.818667-394.752 239.616A34.167467 34.167467 0 0 0 168.448 307.2 376.029867 376.029867 0 0 1 502.784 104.277333c207.701333 0 376.661333 168.96 376.661333 376.661334a34.235733 34.235733 0 0 0 34.133334 34.133333c9.557333 0 18.944-4.096 25.6-11.605333l75.605333-86.016c12.288-13.994667 10.922667-35.498667-3.242667-47.957334z" fill="#ffffff" p-id="2177"></path></svg>